<?xml version="1.0" encoding="utf-8"?>
<!-- Generator: Adobe Illustrator 27.6.1, SVG Export Plug-In . SVG Version: 6.00 Build 0)  -->
<svg version="1.1" id="Layer_1" xmlns="http://www.w3.org/2000/svg" xmlns:xlink="http://www.w3.org/1999/xlink" x="0px" y="0px"
	 viewBox="0 0 80 80" style="enable-background:new 0 0 80 80;" xml:space="preserve">
<style type="text/css">
	.st0{fill:url(#SVGID_1_);}
	.st1{fill:url(#SVGID_00000009580428820584069270000007588655744418873501_);}
	.st2{fill:#FFFFFF;}
	.st3{fill:#3D465D;}
</style>
<g id="green_body_square" transform="matrix( 1, 0, 0, 1, 830,80) ">
	<g transform="matrix( 1, 0, 0, 1, 0,0) ">
		<g>
			<g id="Symbol_32_0_Layer0_0_FILL">
				
					<linearGradient id="SVGID_1_" gradientUnits="userSpaceOnUse" x1="-1620" y1="69.2387" x2="-1620" y2="17.563" gradientTransform="matrix(1 0 0 -1 830 0.1102)">
					<stop  offset="0" style="stop-color:#71CF93"/>
					<stop  offset="1" style="stop-color:#59B15C"/>
				</linearGradient>
				<path class="st0" d="M-764.16-60.09c-0.11-4.31-2.38-6.46-6.81-6.46h-38.08c-4.41,0-6.67,2.15-6.78,6.46v36.14
					c0.11,4.33,2.37,6.49,6.78,6.49h38.08c4.44,0,6.71-2.16,6.81-6.49V-60.09z"/>
				
					<linearGradient id="SVGID_00000045579923529330225040000004084235244455365036_" gradientUnits="userSpaceOnUse" x1="-1620" y1="69.4002" x2="-1620" y2="41.3015" gradientTransform="matrix(1 0 0 -1 830 0.1102)">
					<stop  offset="0" style="stop-color:#85DFAF"/>
					<stop  offset="1" style="stop-color:#69C581"/>
				</linearGradient>
				<path style="fill:url(#SVGID_00000045579923529330225040000004084235244455365036_);" d="M-764.16-62.35
					c0-4.52-2.27-6.78-6.81-6.78h-38.08c-4.52,0-6.78,2.26-6.78,6.78v2.26c0.11-4.31,2.37-6.46,6.78-6.46h38.08
					c4.44,0,6.71,2.15,6.81,6.46V-62.35z"/>
			</g>
		</g>
	</g>
</g>
<g id="face_d" transform="matrix( 1, 0, 0, 1, 325,516.1) ">
	<g transform="matrix( 1, 0, 0, 1, 0,0) ">
		<g>
			<g id="Symbol_94_0_Layer0_0_MEMBER_0_FILL">
				<path class="st2" d="M-290.64-484.33c-1.47-1.74-3.26-2.61-5.36-2.61c-2.1,0-3.89,0.87-5.36,2.61c-1.5,1.71-2.24,3.78-2.24,6.23
					h15.2C-288.4-480.54-289.15-482.62-290.64-484.33z"/>
			</g>
		</g>
	</g>
	<g transform="matrix( 1, 0, 0, 1, 0,0) ">
		<g>
			<g id="Symbol_94_0_Layer0_0_MEMBER_1_FILL">
				<path class="st3" d="M-292.77-481.85c-0.89-1.03-1.96-1.55-3.23-1.55c-1.24,0-2.31,0.52-3.19,1.55
					c-0.91,1.03-1.37,2.28-1.37,3.75h9.12C-291.44-479.57-291.89-480.82-292.77-481.85z"/>
			</g>
		</g>
	</g>
	<g transform="matrix( 1, 0, 0, 1, 0,0) ">
		<g>
			<g id="Symbol_94_0_Layer0_1_MEMBER_0_FILL">
				<path class="st2" d="M-267.84-484.33c-1.47-1.74-3.26-2.61-5.36-2.61s-3.89,0.87-5.36,2.61c-1.5,1.71-2.24,3.78-2.24,6.23h15.2
					C-265.6-480.54-266.34-482.62-267.84-484.33z"/>
			</g>
		</g>
	</g>
	<g transform="matrix( 1, 0, 0, 1, 0,0) ">
		<g>
			<g id="Symbol_94_0_Layer0_1_MEMBER_1_FILL">
				<path class="st3" d="M-269.97-481.85c-0.89-1.03-1.96-1.55-3.23-1.55c-1.24,0-2.31,0.52-3.19,1.55
					c-0.91,1.03-1.37,2.28-1.37,3.75h9.12C-268.64-479.57-269.08-480.82-269.97-481.85z"/>
			</g>
		</g>
	</g>
	<g transform="matrix( 1, 0, 0, 1, 0,0) ">
		<g>
			<g id="Symbol_94_0_Layer0_2_FILL">
				<path class="st3" d="M-304.41-484.64l0.61,2.56c0.1,0.5,0.33,0.87,0.68,1.1c0.35,0.24,0.73,0.29,1.14,0.18l11.75-3.67
					c0.43-0.12,0.75-0.4,0.95-0.84c0.2-0.38,0.25-0.82,0.15-1.33l-0.61-2.56c-0.1-0.47-0.33-0.84-0.68-1.1
					c-0.35-0.21-0.75-0.25-1.18-0.13l-11.75,3.67c-0.41,0.12-0.71,0.38-0.91,0.8S-304.51-485.11-304.41-484.64z"/>
			</g>
		</g>
	</g>
	<g transform="matrix( 1, 0, 0, 1, 0,0) ">
		<g>
			<g id="Symbol_94_0_Layer0_3_FILL">
				<path class="st3" d="M-279.89-489.63c0.18,0.38,0.48,0.63,0.91,0.75l11.75,3.67c0.41,0.15,0.8,0.12,1.18-0.09
					c0.33-0.27,0.54-0.63,0.65-1.1l0.61-2.56c0.1-0.5,0.06-0.94-0.11-1.33c-0.23-0.44-0.54-0.74-0.95-0.88l-11.75-3.67
					c-0.43-0.12-0.81-0.04-1.14,0.22c-0.38,0.21-0.62,0.56-0.72,1.06l-0.61,2.56C-280.18-490.53-280.12-490.07-279.89-489.63z"/>
			</g>
		</g>
	</g>
	<g transform="matrix( 1, 0, 0, 1, 0,0) ">
		<g>
			<g id="Symbol_94_0_Layer0_4_FILL">
				<path class="st3" d="M-277.04-472c-0.35-0.27-0.75-0.32-1.18-0.18c-0.41,0.12-0.72,0.37-0.95,0.75
					c-0.2,0.32-0.49,0.63-0.87,0.93c-0.94,0.68-2.04,1.02-3.31,1.02c-0.58,0-1.13-0.06-1.63-0.18c-0.43-0.09-0.82,0-1.18,0.27
					c-0.35,0.21-0.58,0.56-0.68,1.06c-0.1,0.44-0.03,0.87,0.23,1.28c0.2,0.35,0.53,0.59,0.99,0.71c0.68,0.18,1.44,0.27,2.28,0.27
					c1.95,0,3.64-0.53,5.06-1.59l-0.04,0.04c0.86-0.62,1.5-1.31,1.9-2.08c0.2-0.41,0.25-0.84,0.15-1.28
					C-276.4-471.46-276.66-471.8-277.04-472z"/>
			</g>
		</g>
	</g>
</g>
</svg>
