<?xml version="1.0" encoding="utf-8"?>
<!-- Uploaded to: SVG Repo, www.svgrepo.com, Generator: SVG Repo Mixer Tools -->
<svg width="800px" height="800px" viewBox="0 -26.79 450.534 450.534" xmlns="http://www.w3.org/2000/svg"><defs><style>.a{fill:#d9d9d9;}.b{fill:#ffffff;}.c{fill:#b5886a;}.d{fill:#211715;}.e{fill:#f4b3b3;}</style></defs><path class="a" d="M385.975,335.932q0-18.666-.066-37.332-.065-20.631-.159-41.263-.093-21.438-.193-42.877-.092-20.69-.166-41.381-.065-18.783-.083-37.568,0-2.139,0-4.278l-2,2c17.655.024,35.311-.192,52.966-.289q6.165-.033,12.33-.044c2.573,0,2.578-4,0-4-17.727,0-35.454.212-53.18.3-4.039.02-8.077.039-12.116.033a2.029,2.029,0,0,0-2,2q0,18.438.067,36.875.064,20.514.159,41.028.094,21.432.193,42.864.093,20.793.167,41.587.063,19,.081,38,0,2.174,0,4.347c0,2.574,4,2.578,4,0Z"/><path class="a" d="M396.938,323.975q0-35.465-.225-70.928-.185-35.9-.359-71.8-.073-19.459-.084-38.921l-2,2c14.988-.079,29.976-.21,44.965-.281q4.683-.022,9.366-.029c2.574,0,2.578-4,0-4-14.028,0-28.056.144-42.083.236q-6.124.041-12.248.074a2.03,2.03,0,0,0-2,2q0,35.144.228,70.287.186,35.991.358,71.983.073,19.692.082,39.383c0,2.573,4,2.578,4,0Z"/><path class="a" d="M384.477,337.932c17.023-.119,34.045-.27,51.068-.362q5.178-.029,10.356-.038c2.574,0,2.578-4,0-4-16.229,0-32.458.183-48.686.306q-6.369.048-12.738.094c-2.573.018-2.579,4.019,0,4Z"/><path class="a" d="M394.921,326.382c13.983-.107,27.966-.279,41.949-.372q4.515-.03,9.031-.038c2.574,0,2.578-4,0-4-13.192,0-26.384.187-39.575.311q-5.7.054-11.405.1c-2.573.02-2.579,4.02,0,4Z"/><path class="a" d="M394.6,239.422c14.878-.07,29.756-.2,44.634-.271q4.683-.023,9.366-.029c2.574,0,2.578-4,0-4-13.9,0-27.8.143-41.7.231q-6.15.039-12.3.069c-2.573.013-2.579,4.013,0,4Z"/><path class="a" d="M394.551,228.312c14.891-.07,29.782-.2,44.674-.271q4.688-.022,9.376-.029c2.574,0,2.578-4,0-4-13.914,0-27.829.143-41.743.231q-6.153.039-12.307.069c-2.573.013-2.579,4.013,0,4Z"/><path class="a" d="M407.828,216.086c-.01-13.334.127-26.667.117-40l-2,2c7.294,0,14.588-.055,21.882-.056,2.574,0,2.578-4,0-4-7.294,0-14.588.054-21.882.056a2.03,2.03,0,0,0-2,2c.01,13.333-.127,26.666-.117,40,0,2.573,4,2.578,4,0Z"/><path class="a" d="M413.157,315.685c3.79-11.734,7.7-23.428,11.494-35.163.793-2.455-3.068-3.507-3.857-1.063-3.791,11.734-7.7,23.428-11.5,35.163-.793,2.455,3.068,3.507,3.858,1.063Z"/><path class="a" d="M416.1,185.864c0,6.537-.089,13.074-.09,19.611,0,2.574,4,2.578,4,0,0-6.537.088-13.074.09-19.611,0-2.574-4-2.579-4,0Z"/><path class="a" d="M435.272,315.308c-.009-13.333.127-26.667.118-40,0-2.574-4-2.578-4,0,.009,13.333-.127,26.667-.118,40,0,2.574,4,2.578,4,0Z"/><path class="a" d="M432.2,216.271c0-15.334-.22-30.666-.222-46l-2,2h18.593c2.573,0,2.578-4,0-4H429.975a2.029,2.029,0,0,0-2,2c0,15.334.22,30.666.222,46,0,2.574,4,2.578,4,0Z"/><path class="a" d="M6.546,325.175c-.171,0-.342,0-.513,0a2,2,0,0,0,0,4c5.144.073,10.295-.009,15.439-.013l37.585-.035,47.061-.046,43.864-.046q14-.015,28-.035l1.753,0c2.574,0,2.578-4,0-4q-12.659.024-25.318.033-21.317.024-42.634.045l-47.345.046-39.385.037L12.3,325.17c-1.976,0-4.035-.163-6.006,0a2.29,2.29,0,0,1-.262,0v4c.171,0,.342,0,.513,0,2.574,0,2.578-4,0-4Z"/><path class="a" d="M337.787,329.112q11.195-.026,22.389-.053c2.573-.005,2.578-4.005,0-4q-11.194.022-22.389.053c-2.574.006-2.579,4.006,0,4Z"/><path class="a" d="M97.235,98.438H89.443a2.029,2.029,0,0,0-2,2c0,7.206.011,14.413-.008,21.62a2.028,2.028,0,0,0,2,2c2.652,0,5.3.083,7.956.087,2.574,0,2.577-4,0-4-2.652,0-5.3-.082-7.956-.087l2,2c.019-7.207.008-14.414.008-21.62l-2,2h7.792c2.574,0,2.578-4,0-4Z"/><path class="a" d="M99.708,170.771q-.03-8.927-.041-17.853-.027-14-.049-28-.025-15.567-.047-31.135-.019-13.379-.036-26.759-.009-7.662-.014-15.323,0-.382,0-.764c0-2.574-4-2.578-4,0q-.006,6.723.01,13.446.015,12.871.034,25.743.021,15.5.046,31,.023,14.379.049,28.757.018,9.723.042,19.445,0,.72,0,1.441c.008,2.573,4.008,2.578,4,0Z"/><path class="a" d="M36.94,172.844q28.791-.033,57.581-.06l12.169-.01c2.574,0,2.578-4,0-4q-26.293.017-52.588.051l-17.162.019c-2.573,0-2.578,4,0,4Z"/><path class="a" d="M37.83,52.884l58.222.042,10.638.008c2.574,0,2.578-4,0-4L55.439,48.9,37.83,48.884c-2.574,0-2.578,4,0,4Z"/><path class="a" d="M10.468,114.778c-.985-.639-.743-2.542-.736-3.52a19.092,19.092,0,0,1,.3-4.594,2.984,2.984,0,0,1,.451-1.117c.121-.195-.021,0-.047.035a2.551,2.551,0,0,1,.234-.254c.064-.061.29-.232-.02-.008a2.287,2.287,0,0,1,.278-.176c.293-.152-.229.039.21-.094.2-.06.391-.107.591-.149.381-.079.1-.017.014-.007.126-.015.255-.027.382-.032.269-.01.537-.021.807-.022,3.018,0,6.033.229,9.055.214,2.071-.011,4.142-.045,6.213-.069.235,0,.906-.115,1.084.007-.01-.006-.128-.044-.139-.078a9.5,9.5,0,0,1-.018,1.609c.052,3.262.093,6.525.1,9.787l2-2c-3.324.018-6.659.351-9.977.523-1.839.1-3.68.189-5.522.214-1.575.021-3.881.382-5.26-.269a2.057,2.057,0,0,0-2.736.718,2.016,2.016,0,0,0,.717,2.736c2.043.965,4.33.84,6.535.82,1.886-.017,3.769-.093,5.653-.187,3.522-.177,7.062-.536,10.59-.555a2.03,2.03,0,0,0,2-2c0-3.513-.047-7.026-.109-10.538-.034-2-.517-3.922-2.651-4.589A9.888,9.888,0,0,0,27.4,101c-1.316.016-2.631.035-3.947.048-2.309.022-4.62.035-6.928-.052-1.4-.052-2.8-.2-4.2-.139-2.968.137-5.223,1.573-6.082,4.512a23.188,23.188,0,0,0-.51,6.775c.038,2.415.577,4.7,2.716,6.093C10.615,119.638,12.622,116.177,10.468,114.778Z"/><path class="a" d="M10.468,114.778c-.985-.639-.743-2.542-.736-3.52a19.092,19.092,0,0,1,.3-4.594,2.984,2.984,0,0,1,.451-1.117c.121-.195-.021,0-.047.035a2.551,2.551,0,0,1,.234-.254c.064-.061.29-.232-.02-.008a2.287,2.287,0,0,1,.278-.176c.293-.152-.229.039.21-.094.2-.06.391-.107.591-.149.381-.079.1-.017.014-.007.126-.015.255-.027.382-.032.269-.01.537-.021.807-.022,3.018,0,6.033.229,9.055.214,2.071-.011,4.142-.045,6.213-.069.235,0,.906-.115,1.084.007-.01-.006-.128-.044-.139-.078a9.5,9.5,0,0,1-.018,1.609c.052,3.262.093,6.525.1,9.787l2-2c-3.324.018-6.659.351-9.977.523-1.839.1-3.68.189-5.522.214-1.575.021-3.881.382-5.26-.269a2.057,2.057,0,0,0-2.736.718,2.016,2.016,0,0,0,.717,2.736c2.043.965,4.33.84,6.535.82,1.886-.017,3.769-.093,5.653-.187,3.522-.177,7.062-.536,10.59-.555a2.03,2.03,0,0,0,2-2c0-3.513-.047-7.026-.109-10.538-.034-2-.517-3.922-2.651-4.589A9.888,9.888,0,0,0,27.4,101c-1.316.016-2.631.035-3.947.048-2.309.022-4.62.035-6.928-.052-1.4-.052-2.8-.2-4.2-.139-2.968.137-5.223,1.573-6.082,4.512a23.188,23.188,0,0,0-.51,6.775c.038,2.415.577,4.7,2.716,6.093C10.615,119.638,12.622,116.177,10.468,114.778Z"/><path class="a" d="M28.485,116.681a96.22,96.22,0,0,0,1.092,11.746q.829,6.471,1.854,12.916c.945,5.914,2.319,11.768,2.971,17.726a140.324,140.324,0,0,1,.476,20.3c-.057,1.536-.088,4.359-1.216,5.132a5.579,5.579,0,0,1-.531.172c-.168.036-.689.092-1.046.131-1.049.113-2.1.206-3.151.29-5.089.4-10.206.6-15.311.546-2.221-.024-4.449-.088-6.659-.321-.68-.072-1.544-.013-2.025-.721a3.078,3.078,0,0,1-.224-1.745q0-1.452.021-2.9c.091-6.392.5-12.77,1.022-19.14.274-3.357.573-6.713.839-10.071a91.09,91.09,0,0,1,1.208-10.613c1.49-7.532,4.086-14.789,5.7-22.292.538-2.511-3.317-3.583-3.858-1.064C8.115,123.894,5.7,130.8,4.18,137.926c-1.384,6.5-1.6,13.179-2.164,19.784S.952,170.949.783,177.589q-.067,2.63-.068,5.261a6.231,6.231,0,0,0,1.51,4.693c1.772,1.821,4.557,1.806,6.931,1.949a137.421,137.421,0,0,0,15.825-.137c2.371-.132,4.742-.3,7.1-.554,2.193-.236,4.167-.65,5.389-2.688,1.251-2.088,1.346-4.767,1.416-7.129.109-3.667.079-7.355.015-11.023a136.019,136.019,0,0,0-2.7-22.4c-.905-4.9-1.645-9.833-2.318-14.772a109.273,109.273,0,0,1-1.4-14.113c-.011-2.573-4.011-2.579-4,0Z"/><path class="a" d="M18.844,117.67v16.417c0,2.574,4,2.578,4,0V117.67c0-2.574-4-2.578-4,0Z"/><path class="a" d="M13.327,102.1a71.959,71.959,0,0,0-1.411-10.117c-.7-3.835-1.488-7.653-2.239-11.478-.871-4.436-1.69-8.9-2.367-13.366C6.441,61.4,6.1,55.564,5.42,49.8c-.357-3.016-.7-6.034-.99-9.059a49.463,49.463,0,0,1-.4-6.889l-2,2a67.989,67.989,0,0,0,10.11-.9c1.514-.245,2.9-.958,4.4-1.232,1.224-.223,2.3.607,3.455.958a16.066,16.066,0,0,0,4.356.391q2.342.051,4.683.062c2.848.012,5.7,0,8.544-.181l-2-2c0,6.7.252,13.39.253,20.087,0,3.168-.065,6.337-.239,9.5q-.139,2.511-.367,5.016c-.073.792-.185,1.583-.239,2.376-.029.419.078-.421-.042.27-1.31,7.532-3.446,14.928-5.064,22.4-.771,3.561-1.757,7.32-1.784,10.985-.019,2.575,3.98,2.577,4,0a19.3,19.3,0,0,1,.4-3.617c.308-1.834.679-3.658,1.066-5.477.9-4.242,1.913-8.461,2.91-12.682.788-3.337,1.64-6.675,2.247-10.051a99.965,99.965,0,0,0,1.1-16.593c.072-7.405-.24-14.808-.243-22.213a2.019,2.019,0,0,0-2-2c-2.843.177-5.7.193-8.544.181q-2.244-.009-4.487-.057a11.8,11.8,0,0,1-4.238-.519,7.55,7.55,0,0,0-3.748-.859,35.3,35.3,0,0,0-4.64,1.225,36.034,36.034,0,0,1-4.847.6c-1.678.173-3.358.322-5.046.336a2.04,2.04,0,0,0-2,2c-.212,4.554.61,9.279,1.133,13.79.674,5.818,1.14,11.668,1.861,17.477C4.1,73.782,6.029,82.33,7.659,90.9a75.974,75.974,0,0,1,1.668,11.2c.1,2.566,4.1,2.579,4,0Z"/><path class="a" d="M37.67,43.17c8.255,0,16.511-.062,24.766-.1q17.165-.081,34.328-.162c3.339-.015,6.677-.036,10.016-.037,2.574,0,2.578-4,0-4-7.927,0-15.854.064-23.781.1q-17.3.083-34.6.162c-3.576.015-7.151.037-10.727.037-2.574,0-2.578,4,0,4Z"/><path class="a" d="M106.779,178.561c-8.27,0-16.541.069-24.811.109q-17.531.086-35.061.166c-3.227.014-6.455.043-9.682.029-2.574-.011-2.578,3.989,0,4,7.949.036,15.9-.055,23.849-.093q17.665-.085,35.332-.171c3.458-.016,6.916-.039,10.373-.04,2.574,0,2.579-4,0-4Z"/><path class="b" d="M228.388,201.405c-1.034-.791-2.223-1.705-3.833-2.879,0,0-.325-4.677-.535-7.7a60.491,60.491,0,0,0-8.8,2.455l-4.508-3.414-9.226,10.97L205,206.148a100.37,100.37,0,0,0,7.69,9.109,13.279,13.279,0,0,0,3.677,2.914c1.428.659,3.6,1.183,4.863.249.546-.4,1.758-1.625,2.255-2.086a19.755,19.755,0,0,0,6.165-10.665A4.5,4.5,0,0,0,228.388,201.405Z"/><path class="b" d="M175.343,11c.3.185.582.346.838.48,2.053,1.081,4.885,1.545,7.074,2.189a29.1,29.1,0,0,1,7.842,3.486.836.836,0,0,1-.431,1.541c-.424.007-.857.022-1.345.063a3.616,3.616,0,0,0-3.146,2.155,2.7,2.7,0,0,0,.986,2.667,7.125,7.125,0,0,0,2.678,1.285,43.971,43.971,0,0,0,11.307,2.144,7.561,7.561,0,0,1,5.25,2.351c.992,1.032,1.505,1.96,3.21,3.856,3-2.121,6.327-4.633,9.617-6.88-1.807-2.448-3.668-4.975-3.668-4.975a27.887,27.887,0,0,0-4.928-5.752c-2.885-3.08-7.573-7.284-9.712-8.3C196.568,5.229,192.13,3.2,187.5,2.4a25.5,25.5,0,0,0-7.724-.157c-2.341.316-6.879,1.22-6.9,5.392C172.759,9.058,174.123,10.234,175.343,11Z"/><path class="c" d="M174.287,120.7a26.283,26.283,0,0,0,1.447,5.954c1.5,3.46,6.69,5.84,11.81,4.59a109.274,109.274,0,0,0,24.778-7.727c16.889-8,19.632-19.26,19.632-19.26a63.544,63.544,0,0,0-1.906-26.3,97.737,97.737,0,0,0-10-23.307l-1.829,1.472c-1.14-1.88-2.23-3.54-2.84-4.46-4.2-6.31-11.31-11.99-17.86-13.67a20.376,20.376,0,0,0-4.5-.85l-6.218-.117a35.327,35.327,0,0,0-13.624,4.621,34.62,34.62,0,0,0-15.053,18.541c-2.533,8.459-.547,20.157,7.489,33.281l.176.414a74.992,74.992,0,0,1,7.86,22.27C173.843,117.441,174.035,119.057,174.287,120.7Z"/><path class="b" d="M208.6,119.947a21.915,21.915,0,0,1-8.645-1,11.421,11.421,0,0,0,4.3-5.272c.72-1.88.15-4.86-.59-6.76-.26-.679-.529-1.3-.819-1.887a18.172,18.172,0,0,1-8.688.531c-5.908-1.288-8.483-2.268-13.473-5.9a4.275,4.275,0,0,1-3.36,1.232,10.862,10.862,0,0,1-5.7-2.461c-1.727-1.286-3.584-3.988-3.675-6.066a3.553,3.553,0,0,1,1.706-3.154,3.88,3.88,0,0,1,2.974-.7c2.643-5.858,4.975-14.311,6.894-21.965.979,1.777,2.312,6.1,3.375,4.795,4.552-5.472,6.825-13.364,7.478-19.723,8.784,6.222,20.845,6.739,26,5.725a4.135,4.135,0,0,1,1.771-1.207,3.557,3.557,0,0,1,3.563.413c1.647,1.27,2.792,4.34,2.852,6.495a10.311,10.311,0,0,1-1.29,5.878,4.127,4.127,0,0,1-2.674,2.2c2.78,6.7,2.688,14.693-1.305,20.488a37.866,37.866,0,0,0,3.563,4.961,6.081,6.081,0,0,0,5.17,2.26c1.14,0,2.78-.11,4.411-.251q-.1,1.992-.309,4.035c-1.224,7.1-4.429,13.38-15.293,16.084A45.205,45.205,0,0,1,208.6,119.947Z"/><path class="d" d="M164.067,94.888a71.23,71.23,0,0,1,7.217,19.414c1.177,5.476.52,12.79,5.377,16.589a13.627,13.627,0,0,0,11.414,2.276c2.51-.566,1.448-4.423-1.063-3.857-3.23.729-7.842-.088-9.425-3.4a19.735,19.735,0,0,1-1.3-5.32c-.287-1.793-.473-3.6-.765-5.393a70.634,70.634,0,0,0-8-22.328c-1.247-2.252-4.7-.237-3.454,2.019Z"/><path class="d" d="M178.34,100.4a35.329,35.329,0,0,0,12.707,6.493c4.5,1.143,9.829,1.7,14.051-.71,2.234-1.277.222-4.734-2.019-3.453-3.463,1.979-8.015,1.105-11.632.133a32.314,32.314,0,0,1-11.088-5.917,2.012,2.012,0,0,0-2.736.717,2.049,2.049,0,0,0,.717,2.737Z"/><path class="d" d="M218.585,71.435c2.83,6.77,2.9,15.231-2.4,20.844-1.767,1.871,1.057,4.7,2.828,2.829,6.232-6.6,6.824-16.617,3.43-24.737a2.066,2.066,0,0,0-2.46-1.4,2.012,2.012,0,0,0-1.4,2.46Z"/><path class="d" d="M172.477,86.484a6.2,6.2,0,0,0-5.848,3.125,5.884,5.884,0,0,0-.2,5.017,13.625,13.625,0,0,0,8.147,7.72,7.2,7.2,0,0,0,7.347-1.094,2.011,2.011,0,0,0,0-2.828,2.049,2.049,0,0,0-2.829,0,1.911,1.911,0,0,1-.825.4c-.107.029-.576.1-.216.062a5.863,5.863,0,0,1-.726.009q-.38-.041-.112,0c-.138-.021-.276-.046-.413-.074q-.3-.063-.6-.146c-.254-.072-.5-.161-.749-.249q-.333-.132-.051-.017c-.113-.051-.225-.1-.336-.158a14.089,14.089,0,0,1-1.984-1.215c-.15-.107-.3-.215-.446-.327.38.293-.184-.174-.246-.232-.317-.3-.6-.618-.888-.94-.146-.182-.161-.2-.047-.047-.078-.1-.154-.208-.229-.314q-.168-.238-.324-.486c-.137-.217-.268-.44-.389-.667-.034-.064-.354-.746-.2-.371a7.9,7.9,0,0,1-.358-1.173c-.095-.38-.028.314-.01-.195,0-.095.01-.2.006-.292q.028-.314-.033.2c.013-.081.03-.162.05-.242.043-.149.288-.6.039-.179.082-.139.156-.28.244-.417-.22.343.228-.231.3-.3a1.951,1.951,0,0,1,1.921-.561,2.005,2.005,0,0,0,2-2,2.06,2.06,0,0,0-2-2Z"/><path class="d" d="M217.664,59.032c-.013.025.353-.543.185-.333-.008.01.456-.454.233-.267a3.479,3.479,0,0,1,.533-.33q.33-.16.072-.038l.274-.088c-.077.017.734-.139.458-.111.062-.006.664.012.295-.033a3.816,3.816,0,0,1,.516.129c-.414-.107-.044-.027.075.046s.212.133.316.2c-.431-.294,0,.025.095.117a4.557,4.557,0,0,1,.388.433c-.2-.255.13.212.162.264a7.279,7.279,0,0,1,.985,2.227,10.5,10.5,0,0,1,.283,1.25c.024.146.022.136,0-.03.01.1.019.193.024.29.007.184.017.368.021.553.009.4.007.794-.014,1.191a6.109,6.109,0,0,1-.121,1.043,7.479,7.479,0,0,1-1.035,2.6,3.988,3.988,0,0,0-.228.346c.089-.112-.244.256-.3.312-.1.088-.1.092.013.013a2.327,2.327,0,0,1-.267.171,1.147,1.147,0,0,1-.475.182c-2.477.687-1.425,4.547,1.063,3.857,2.809-.779,4.485-3.59,5.065-6.3a13.444,13.444,0,0,0-.368-7.174c-.788-2.245-2.121-4.532-4.46-5.4a6.189,6.189,0,0,0-7.236,2.853,2,2,0,1,0,3.454,2.019Z"/><path class="d" d="M199.933,121.306a13.92,13.92,0,0,0,6.249-7.095,10.038,10.038,0,0,0,.153-5.12,19.285,19.285,0,0,0-1.764-5.072,2.019,2.019,0,0,0-2.737-.717,2.041,2.041,0,0,0-.717,2.736,15.646,15.646,0,0,1,1.3,3.779,6.8,6.8,0,0,1-.09,3.33c-.059.189-.068.152.008-.012-.062.133-.123.265-.188.4q-.185.37-.4.725a7.712,7.712,0,0,1-.862,1.212,10.824,10.824,0,0,1-2.972,2.384,2,2,0,0,0,2.019,3.454Z"/><path class="d" d="M218.357,93.868A44.078,44.078,0,0,0,221.3,97.8a8.041,8.041,0,0,0,2.622,2.147c2.656,1.264,5.676.87,8.512.628a2,2,0,0,0,0-4c-1.345.115-2.694.225-4.044.247-.292,0-.584,0-.876-.01-.131-.006-.263-.026-.393-.027-.245,0,.261.06-.11-.013a7.3,7.3,0,0,1-.744-.174,3.1,3.1,0,0,0-.305-.1c-.252-.045.381.2-.021,0-.178-.09-.354-.18-.523-.286-.1-.061-.2-.15-.3-.2-.218-.114.229.222.059.043-.32-.334-.669-.629-.97-.986a32.809,32.809,0,0,1-2.392-3.216,2,2,0,0,0-3.454,2.019Z"/><path class="d" d="M186.275,35.094a37.09,37.09,0,0,0-26.209,16.513A29.22,29.22,0,0,0,155.593,62.2a35.114,35.114,0,0,0,.507,13.955,61.785,61.785,0,0,0,7.791,18.321c1.336,2.2,4.8.189,3.454-2.019-5.011-8.241-9.2-18.071-8.083-27.933.867-7.649,6.139-15.032,12.269-19.444a34.916,34.916,0,0,1,15.807-6.127,2.013,2.013,0,0,0,1.4-2.461,2.054,2.054,0,0,0-2.46-1.4Z"/><path class="d" d="M193.625,39.173a26.847,26.847,0,0,1,12.916,5.82c4.191,3.388,7.176,7.574,9.956,12.135,1.337,2.2,4.8.188,3.454-2.019-3.017-4.948-6.313-9.555-10.891-13.192a30.459,30.459,0,0,0-14.372-6.6,2.065,2.065,0,0,0-2.46,1.4,2.015,2.015,0,0,0,1.4,2.46Z"/><path class="d" d="M190.128,53.868a38.963,38.963,0,0,0,25.138,5.66,2.066,2.066,0,0,0,2-2,2.011,2.011,0,0,0-2-2,35.516,35.516,0,0,1-23.12-5.114c-2.167-1.4-4.174,2.059-2.018,3.454Z"/><path class="d" d="M188.359,51.808a39.511,39.511,0,0,1-3.75,13.183,30.26,30.26,0,0,1-1.685,2.956c-.323.5-.659.989-1.019,1.46-.429.561-.772.555.437.435-.9.089,1.1-.284,1.042.06a15.48,15.48,0,0,0-1.036-2c-.358-.793-.686-1.6-1.1-2.368a2.021,2.021,0,0,0-3.655.478c-1.372,5.457-2.823,10.9-4.652,16.228-.837,2.44,3.025,3.488,3.858,1.063,1.828-5.324,3.279-10.77,4.651-16.228l-3.656.478c.947,1.781,1.48,4.383,3.255,5.563,2.689,1.789,4.728-2.127,5.852-4a42.731,42.731,0,0,0,5.453-17.313,2.012,2.012,0,0,0-2-2,2.047,2.047,0,0,0-2,2Z"/><path class="b" d="M308.984,393.511c-.516-.183-.993-.373-1.419-.561-5.189-2.3-9.8-5.7-14.368-9.075a16.563,16.563,0,0,1-4.1-3.8c-1.1-1.638-.736-3.125-.664-5.028.055-1.464.392-5.906.393-8.682a77.955,77.955,0,0,0-1.414-7.943,127.278,127.278,0,0,0,15.823-2c.541,3.729,1.2,8.29,1.2,8.29a13.776,13.776,0,0,0,.693,2.548c.554,1.325,1.249,1.677,2.758,3.233,4.444,4.148,8.956,7.661,13.442,12.127,1.748,1.74,3.241,4.069,3.033,6.527C323.739,396.59,314.286,395.391,308.984,393.511Z"/><path class="b" d="M203.132,393.371a5.64,5.64,0,0,1-3.058-4.872c-.21-2.49,1.3-4.84,3.07-6.6,4.53-4.51,9.09-8.06,13.58-12.25,1.53-1.57,2.23-1.93,2.79-3.27a14.149,14.149,0,0,0,.7-2.57c.3-2.114.45-3.566.611-4.747a126.611,126.611,0,0,0,16.492.329c-.227,3.181-.483,6.788-.483,6.788-.21,2.88-.51,6.59-.45,8.07.07,1.92.44,3.43-.67,5.08a16.643,16.643,0,0,1-4.14,3.84c-4.61,3.41-9.28,6.84-14.52,9.17C213.665,393.844,207.04,395.4,203.132,393.371Z"/><path class="b" d="M255.953,194.067c-10.836,2.232-21.763,4.166-31.25,5.36a121.736,121.736,0,0,0-2.311,15.6c-2.856,50.279-4.019,93.064-5.212,142.757a1.019,1.019,0,0,0,.914,1.032,130.218,130.218,0,0,0,21.231.473,1.017,1.017,0,0,0,.947-.893c3.5-30.2,6.131-53.529,8.782-72.146,2.074-15.407,8.617-58.711,9.185-59.852a21.4,21.4,0,0,1,1.589-2.584c.564,2.733.929,4.51.929,4.51,2.222,10.815,9.231,49.229,10.865,58.82,2.532,14.862,10.27,63,11.511,70.617a1,1,0,0,0,1.038.834,130.373,130.373,0,0,0,21.229-2.591,1.017,1.017,0,0,0,.81-1.064c-3.7-49.777-8.929-94.3-14.308-144.523-.46-4.261-2.691-16.906-6.121-23.271C276.85,189.466,266.444,191.907,255.953,194.067Z"/><path class="e" d="M264.843,106.7c-11.7-35.964-33.666-72.473-41.31-82.1a.992.992,0,0,0-1.308-.228c-4.92,3.081-10.2,7.24-14.513,10.167a.993.993,0,0,0-.28,1.369c2.278,3.484,7.544,10.753,11.083,16.263a96.891,96.891,0,0,1,11.533,25.79,62.882,62.882,0,0,1,2.088,24.659c-1.224,7.1-4.429,13.38-15.293,16.084-4.708,1.172-12.1,2.109-16.959.224a42.082,42.082,0,0,0-12.055,11.889c-7.43,10.7-15.272,31.783-15.907,35.95-.392,2.578-1.415,5.132-.916,7.692.513,2.624,2.878,6.222,4.581,8.283,8.28,10.012,15.145,15.265,22.193,20.979a1,1,0,0,0,1.4-.131L211,189.527a1,1,0,0,0-.088-1.373c-5.423-5.037-10.335-10.2-16.315-16.239a5.059,5.059,0,0,1-1.686-3.015,5.48,5.48,0,0,1,.915-2.9c2.14-3.967,6.017-10.244,8.566-14.757,5.2,8.34,11.569,17.889,15.858,23.158,2.08,2.54,3.12,2.56,4.34,4.32.85,1.21,1.08,3.51,1.05,4.94-.008.4-.016.844-.023,1.331l1.008,14.446c18.893-2.371,43.528-7.687,61.776-12.45-2.189-12.133-4.456-21.266-6.751-29.624-1.607-5.853-3.242-12.238-4.815-18.37-2.963-11.556-7.321-23.63-9.988-32.3"/><path class="d" d="M233.954,104.252a68.577,68.577,0,0,0,.185-15.88A75.647,75.647,0,0,0,230.507,72.7a109.315,109.315,0,0,0-13.743-26.761c-1.42-2.077-2.86-4.139-4.3-6.205a34.381,34.381,0,0,1-3.438-5.13l.273,1.009q-.523.657-.1.321l.485-.335.657-.46q.936-.66,1.864-1.332c1.245-.9,2.484-1.8,3.728-2.7,1.211-.876,2.427-1.747,3.657-2.6a25.02,25.02,0,0,1,3.916-2.532l-1.01.273c-.834.1-.229-.492-.2-.008.022.317-.147-.2.066.086s.406.536.606.807q.744,1.008,1.459,2.037c1.137,1.627,2.234,3.281,3.309,4.949,2.835,4.4,5.521,8.9,8.114,13.441a368.175,368.175,0,0,1,18.191,36.347c3.3,7.638,6.287,15.414,8.869,23.323.795,2.437,4.659,1.394,3.857-1.063A306.189,306.189,0,0,0,250.56,66.826a355.327,355.327,0,0,0-17.11-31.157c-2.065-3.333-4.189-6.639-6.485-9.819-1.05-1.455-2.161-3.592-4.184-3.637-1.6-.035-3.229,1.484-4.476,2.334-1.481,1.009-2.939,2.051-4.391,3.1-1.416,1.024-2.825,2.057-4.244,3.076-1.212.87-3.1,1.753-3.916,3.015-1.532,2.376,1.343,5.251,2.64,7.121,3.68,5.306,7.51,10.549,10.728,16.155a94.654,94.654,0,0,1,9.261,22.423,64.9,64.9,0,0,1,1.571,24.814,2.011,2.011,0,0,0,2,2,2.047,2.047,0,0,0,2-2Z"/><path class="d" d="M201.88,121.554a35.6,35.6,0,0,0,12.228-.247,31.317,31.317,0,0,0,10.5-3.514c5.138-2.987,8.093-7.955,9.274-13.676.518-2.512-3.336-3.586-3.857-1.063-.978,4.735-3.151,8.794-7.436,11.286a27.649,27.649,0,0,1-8.965,3.007,30.542,30.542,0,0,1-10.681.35,2.057,2.057,0,0,0-2.46,1.4,2.016,2.016,0,0,0,1.4,2.46Z"/><path class="d" d="M262.915,107.228c3.188,10.331,6.874,20.5,9.64,30.961,2.75,10.4,5.638,20.786,8.14,31.247,1.445,6.046,2.7,12.137,3.8,18.255.457,2.529,4.313,1.457,3.858-1.064q-2.717-15.053-6.78-29.8c-3.116-11.385-5.833-22.854-9.437-34.1-1.771-5.528-3.655-11.02-5.366-16.567-.757-2.452-4.62-1.406-3.857,1.063Z"/><path class="d" d="M225.615,201.306a477.57,477.57,0,0,0,48.037-9.1q6.36-1.5,12.685-3.136c2.49-.646,1.434-4.505-1.064-3.857-15.492,4.019-31.159,7.471-46.938,10.157-4.228.719-8.467,1.381-12.72,1.932a2.066,2.066,0,0,0-2,2,2.011,2.011,0,0,0,2,2Z"/><path class="d" d="M220.255,217.506q-2.148,38.348-3.348,76.741-.615,18.923-1.092,37.851-.258,9.888-.5,19.776-.057,2.337-.113,4.675c-.038,1.554.036,3.1,1.584,3.918,1.3.686,3.222.533,4.662.646q2.292.179,4.588.283,4.626.207,9.256.069a26.4,26.4,0,0,0,4.562-.241c1.718-.361,2.286-1.75,2.475-3.323.755-6.26,1.449-12.529,2.175-18.793,1.259-10.867,2.522-21.733,3.872-32.589,1.917-15.418,4.123-30.8,6.424-46.16q1.7-11.334,3.482-22.653c.406-2.551.814-5.1,1.256-7.645.131-.751.26-1.5.411-2.251.04-.2.1-.4.128-.6.006-.048.055-.129.045-.176,0-.022.022-.055.025-.077-.075.67-.181.41.07-.042a21.6,21.6,0,0,1,4.169-5.4c1.9-1.747-.936-4.57-2.828-2.828a25.839,25.839,0,0,0-4.486,5.676,6.946,6.946,0,0,0-.921,2.091c-.357,1.627-.6,3.284-.874,4.927-1.095,6.59-2.1,13.194-3.11,19.8-2.227,14.633-4.388,29.279-6.333,43.953-1.281,9.667-2.446,19.349-3.588,29.033q-1.012,8.59-2,17.184-.535,4.638-1.072,9.277l-.5,4.329a17.016,17.016,0,0,0-.284,2.448l-.057.493q.972-.69.267-.567a5.528,5.528,0,0,0-1.669.076c-2.955.117-5.913.143-8.869.06q-2.148-.062-4.293-.2-1.16-.072-2.317-.162a11.206,11.206,0,0,0-2.381-.2l-.486-.046q.695.868.609.18a3.945,3.945,0,0,0,.03-1.235l.06-2.462q.059-2.447.119-4.892.119-4.834.241-9.669.469-18.567,1.029-37.132,1.15-37.269,3.058-74.509.255-4.82.525-9.638c.144-2.572-3.856-2.564-4,0Z"/><path class="d" d="M285.686,359.972c.277,1.383.6,2.762.829,4.154a23.064,23.064,0,0,1,.248,4.841c-.068,1.619-.171,3.236-.264,4.854a23.214,23.214,0,0,0-.076,4.72c.582,3.911,4.656,6.256,7.571,8.391a76.786,76.786,0,0,0,10.742,6.882c4.521,2.274,9.931,3.84,15.006,2.813a8.055,8.055,0,0,0,5.734-4.082c1.651-3.347.8-7-1.427-9.849a41.865,41.865,0,0,0-5.1-5.074c-1.818-1.641-3.678-3.235-5.523-4.846-1.74-1.519-3.44-3.069-5.106-4.667a6.172,6.172,0,0,1-1.95-3.926,2.015,2.015,0,0,0-2.46-1.4,2.046,2.046,0,0,0-1.4,2.46,9.839,9.839,0,0,0,1.42,3.975,22.1,22.1,0,0,0,3.23,3.322c2.934,2.695,6,5.238,8.958,7.907a58.965,58.965,0,0,1,4.342,4.156,6.421,6.421,0,0,1,1.924,4.157,4.6,4.6,0,0,1-.722,2.411,4.012,4.012,0,0,1-1.853,1.293,12.319,12.319,0,0,1-5.895.249,25.923,25.923,0,0,1-3.187-.739q-.711-.211-1.409-.465a9.853,9.853,0,0,1-1.154-.473,61.773,61.773,0,0,1-9.97-5.982q-2.336-1.659-4.628-3.383c-1.151-.868-2.795-2.027-3.167-3.509-.344-1.367.024-3.075.106-4.482.1-1.695.2-3.389.27-5.086a40.946,40.946,0,0,0-1.234-9.689c-.507-2.521-4.363-1.454-3.857,1.064Z"/><path class="d" d="M218.824,359.069c-.344,2.591-.185,5.922-2.161,7.847-2.948,2.87-6.085,5.525-9.175,8.239-1.6,1.4-3.181,2.828-4.713,4.305a17.438,17.438,0,0,0-3.634,4.456,8.618,8.618,0,0,0,.348,8.861c2.976,4.151,8.845,3.939,13.312,3,6.48-1.365,12.146-5.3,17.409-9.133,3.272-2.383,7.832-4.94,8.255-9.4.158-1.664-.121-3.369-.04-5.047.1-2.007.262-4.011.409-6.015.188-2.568-3.813-2.556-4,0a67.272,67.272,0,0,0-.407,8.869c.089,1.507.162,2.619-.871,3.823a23.545,23.545,0,0,1-4.085,3.378,96.1,96.1,0,0,1-9.4,6.315,27.263,27.263,0,0,1-6.869,3,19.421,19.421,0,0,1-6.066.76,5.706,5.706,0,0,1-4.228-1.628c-1.406-1.667-.831-4.351.579-6.2a31.935,31.935,0,0,1,3.86-3.854c1.488-1.372,3.011-2.7,4.538-4.032,1.63-1.418,3.266-2.829,4.868-4.279a28.449,28.449,0,0,0,3.8-3.785c1.946-2.6,1.858-6.395,2.268-9.48a2.01,2.01,0,0,0-2-2,2.052,2.052,0,0,0-2,2Z"/><path class="d" d="M198.968,117.129a54.023,54.023,0,0,0-8.358,6.943,49.135,49.135,0,0,0-6,8,121.3,121.3,0,0,0-8.338,16.558,144.967,144.967,0,0,0-5.519,14.625c-.572,1.877-.9,3.78-1.318,5.695a14.379,14.379,0,0,0-.326,6.187,16.308,16.308,0,0,0,1.913,4.5,52.528,52.528,0,0,0,7.027,8.975q3.653,4,7.68,7.634c2.353,2.124,4.792,4.148,7.254,6.144,2.007,1.628,5.046,5.193,7.63,2.572,2.147-2.177,4-4.754,5.965-7.093,1.94-2.306,3.931-4.578,5.823-6.924a3.112,3.112,0,0,0-.24-4.358c-1.353-1.4-2.836-2.683-4.224-4.045-2.823-2.771-5.588-5.6-8.36-8.423a35.62,35.62,0,0,1-4.274-4.433c-.933-1.377.322-2.845,1.018-4.086,1.722-3.067,3.543-6.078,5.329-9.108.833-1.413,1.661-2.829,2.469-4.256,1.271-2.243-2.184-4.261-3.454-2.019-1.938,3.422-3.979,6.784-5.964,10.178-1.792,3.063-4.961,6.964-3.231,10.626.943,2,2.929,3.537,4.448,5.082s3.016,3.073,4.528,4.606q2.316,2.346,4.663,4.661a51.992,51.992,0,0,1,4.574,4.436l-.514-.882c-.273-.718.709-1.05.276-.655a4.619,4.619,0,0,0-.382.453l-1.36,1.618-4.113,4.891-4.073,4.843a19.618,19.618,0,0,1-2,2.3l.883-.514c.194-.082.884.614.247,0-.123-.119-.273-.221-.406-.329l-.946-.764q-.948-.765-1.893-1.531c-1.325-1.078-2.643-2.164-3.943-3.272-2.792-2.379-5.49-4.865-8.052-7.492a67.631,67.631,0,0,1-7.785-9.014,17.981,17.981,0,0,1-2.493-4.758c-.584-1.949,0-3.9.413-5.821a84.169,84.169,0,0,1,3.923-12.667,153.474,153.474,0,0,1,8.127-17.856,61.227,61.227,0,0,1,5.837-9.173,44.945,44.945,0,0,1,9.552-8.6c2.1-1.46.1-4.929-2.018-3.454Z"/><path class="d" d="M203.276,207.158c1.938,2.626,4.02,5.167,6.2,7.6,2.552,2.853,5.37,5.76,9.391,6.133a5.877,5.877,0,0,0,4.812-1.965,36.376,36.376,0,0,0,3.673-3.817,21.171,21.171,0,0,0,2.913-4.868,13.689,13.689,0,0,0,1.483-5.97,6.692,6.692,0,0,0-2.982-5.078q-2.594-1.979-5.27-3.842c-2.119-1.473-4.12,1.993-2.019,3.454q2.074,1.441,4.1,2.953c.814.611,1.675,1.038,2.024,1.969.516,1.376-.293,3.175-.79,4.468a16.907,16.907,0,0,1-2.162,3.912,24.358,24.358,0,0,1-2.9,3.131c-.842.807-1.455,1.806-2.7,1.672-2.8-.3-4.866-2.9-6.629-4.859-1.99-2.212-3.912-4.516-5.679-6.911a2.061,2.061,0,0,0-2.736-.718,2.016,2.016,0,0,0-.718,2.737Z"/><path class="d" d="M215.747,195.213a61.562,61.562,0,0,1,7.624-2.208,2.016,2.016,0,0,0,1.4-2.461,2.046,2.046,0,0,0-2.46-1.4,61.551,61.551,0,0,0-7.623,2.209,2,2,0,0,0,1.063,3.857Z"/><path class="d" d="M210.328,31.01a27.256,27.256,0,0,0-3.248-3.731,9.714,9.714,0,0,0-5.146-2.209c-2.065-.23-4.087-.3-6.134-.719a57.116,57.116,0,0,1-5.607-1.47c-.785-.248-3.038-1.132-1.494-1.91a6.421,6.421,0,0,1,2.233-.312,2.81,2.81,0,0,0,2.154-1.361c2.113-3.606-4.135-5.716-6.533-6.633-3.181-1.216-6.9-1.463-9.855-3.184-.964-.562-2.022-1.187-1.775-2.41a2.994,2.994,0,0,1,1.89-2.032c2.672-1.235,6.149-1.181,8.984-.873a38.646,38.646,0,0,1,11.786,3.772,22.9,22.9,0,0,1,4.461,2.482,52.409,52.409,0,0,1,4.033,3.485,56.056,56.056,0,0,1,7.751,8.466c1.473,2.086,4.943.09,3.454-2.019a59.423,59.423,0,0,0-7.536-8.478c-2.315-2.232-4.849-4.765-7.734-6.253-7.489-3.863-16.285-7.08-24.775-4.932-2.928.741-5.737,2.58-6.253,5.767-.654,4.045,2.849,6.415,6.237,7.626,3.642,1.3,7.425,1.8,10.885,3.645a11.859,11.859,0,0,0,1.317.745c.6.223.207.709.573-.783.3-1.206.447-1.019-.439-.947a6.908,6.908,0,0,0-2.876.776,4.532,4.532,0,0,0-2.453,5c.624,2.353,2.739,3.542,4.9,4.225a53.562,53.562,0,0,0,6.957,1.728,37.731,37.731,0,0,0,3.937.492,8.627,8.627,0,0,1,3.143.516c1.912.866,3.034,2.815,4.333,4.365,1.656,1.975,4.472-.867,2.828-2.829Z"/><path class="d" d="M200.658,152.245c2.831,4.535,5.735,9.025,8.753,13.438,2.57,3.758,5.132,7.814,8.29,11.114,1.063,1.111,2.849,2,3.465,3.466.644,1.531.393,3.238.457,4.842.09,2.217.308,4.437.462,6.651l.47,6.77c.177,2.554,4.179,2.573,4,0-.306-4.405-.69-8.811-.918-13.22a38.738,38.738,0,0,0-.238-4.553,8.226,8.226,0,0,0-3.049-5.159c-3.325-2.732-5.733-6.527-8.175-10.031-3.5-5.017-6.825-10.15-10.063-15.337-1.36-2.179-4.822-.173-3.454,2.019Z"/><path class="d" d="M258.829,228.858c3.474,16.936,6.449,33.987,9.49,51.005,2.751,15.4,5.185,30.855,7.688,46.3q2.046,12.63,4.085,25.26c.362,2.244.572,4.584,1.1,6.8a3.086,3.086,0,0,0,2.979,2.382,48.313,48.313,0,0,0,6.016-.379q5.364-.454,10.681-1.35a41.074,41.074,0,0,0,5.064-.934c2.183-.659,2.313-2.527,2.168-4.464q-.438-5.838-.911-11.674-.908-11.22-1.932-22.429-2.049-22.476-4.447-44.92-2.391-22.727-4.9-45.441c-1.308-12.037-2-24.293-5.625-35.925a40.607,40.607,0,0,0-2.775-6.942c-1.206-2.275-4.659-.256-3.454,2.019a48.533,48.533,0,0,1,3.892,11.607q.7,2.979,1.242,5.993.222,1.234.416,2.474c.13.841.183,1.213.258,1.848,1.383,11.722,2.542,23.475,3.817,35.209,2.529,23.264,5.022,46.533,7.186,69.833q.926,9.966,1.767,19.94.426,5.059.828,10.121.192,2.431.379,4.864.095,1.221.186,2.443.046.613.092,1.225c.019.245.037.491.055.736q.075.844.01.273l.718-.717a6.96,6.96,0,0,1-2.373.523q-1.359.252-2.724.481c-1.728.288-3.461.545-5.2.755q-2.651.319-5.315.525-1.257.1-2.516.173a8.183,8.183,0,0,1-2.63.064l.883.515c.116.093-.007.271.011.027a1.424,1.424,0,0,0-.043-.264c-.038-.236-.077-.473-.116-.709l-.267-1.654q-.356-2.191-.709-4.383l-2-12.4q-2.488-15.4-5-30.791c-1.226-7.507-2.431-15.018-3.74-22.511-1.585-9.062-3.243-18.111-4.907-27.158-1.679-9.128-3.347-18.261-5.156-27.365q-.2-1.02-.411-2.038c-.517-2.52-4.374-1.454-3.857,1.063Z"/><path class="d" d="M200.87,92.268a9.817,9.817,0,0,0,4.423-1.885,8.642,8.642,0,0,0,3.454-4.313,2,2,0,1,0-3.857-1.063,3.535,3.535,0,0,1-.126.358l.2-.478a5.133,5.133,0,0,1-.647,1.088l.313-.405a8.742,8.742,0,0,1-1.564,1.523l.405-.313a10.548,10.548,0,0,1-2.233,1.329l.477-.2a7.7,7.7,0,0,1-1.91.5,1.989,1.989,0,0,0-1.195.919,2,2,0,0,0,.717,2.737,2.358,2.358,0,0,0,1.541.2Z"/><path class="d" d="M195.875,80.239c.165.606.345,1.209.547,1.8.045.131.093.26.141.39a4.233,4.233,0,0,0,.394.892,2.9,2.9,0,0,0,.431.539,2.444,2.444,0,0,0,.474.361l.045.022a2.983,2.983,0,0,0,.51.212,3.184,3.184,0,0,0,1.5-.021,3.385,3.385,0,0,0,.7-.276,1.334,1.334,0,0,0,.182-.107c.238-.169.454-.36.681-.541l-.405.313.018-.014a1.514,1.514,0,0,0,.561-.516,2.066,2.066,0,0,0,.157-2.221,2.017,2.017,0,0,0-1.195-.919l-.532-.071a1.991,1.991,0,0,0-1.01.273c-.224.172-.434.347-.654.521l.405-.312a1.316,1.316,0,0,1-.257.154l.477-.2a1.3,1.3,0,0,1-.288.08l.532-.072a1.5,1.5,0,0,1-.267.015l.531.072a.493.493,0,0,1-.1-.024l.478.2a.581.581,0,0,1-.088-.049l.405.313a.733.733,0,0,1-.124-.125l.313.4a1.415,1.415,0,0,1-.147-.267l.2.478a20.4,20.4,0,0,1-.754-2.37,2.068,2.068,0,0,0-.919-1.2,1.486,1.486,0,0,0-.744-.237,1.512,1.512,0,0,0-.8.035,2.025,2.025,0,0,0-1.195.919,2.09,2.09,0,0,0-.2,1.541Z"/><path class="d" d="M182.973,81.933c.435,1.294,2.4,3.58,4.556,2.346,2.643-1.921.668-4.971-1.221-5.716C184.761,77.953,182.271,79.025,182.973,81.933Z"/><path class="d" d="M204.232,66.674c1.087.826,2.625,3.417.766,5.066-2.667,1.89-4.924-.957-5.026-2.985C199.889,67.1,201.7,65.078,204.232,66.674Z"/></svg>